<svg xmlns="http://www.w3.org/2000/svg" viewBox="0 0 68 22" width="68" height="22">
	<style>
		tspan { white-space:pre }
		.shp0 { fill: #f2f5f4 } 
	</style>
	<path id="1" class="shp0" d="M34.5 1C40.3 1 45 5.7 45 11.5C45 17.3 40.3 22 34.5 22C28.7 22 24 17.3 24 11.5C24 5.7 28.7 1 34.5 1ZM61.5 5C65.09 5 68 7.91 68 11.5C68 15.09 65.09 18 61.5 18C57.91 18 55 15.09 55 11.5C55 7.91 57.91 5 61.5 5ZM7.5 5C11.09 5 14 7.91 14 11.5C14 15.09 11.09 18 7.5 18C3.91 18 1 15.09 1 11.5C1 7.91 3.91 5 7.5 5Z" />
</svg>