<svg version="1.1" xmlns="http://www.w3.org/2000/svg" 
xmlns:xlink="http://www.w3.org/1999/xlink"
preserveAspectRatio="xMinYMid meet" width="35" height="35"> 
<symbol id="bar-1" viewBox="-85 0 512 512.00159" >
    <path d="m244.648438 305.390625c9.78125 15.597656 25.304687 24.066406 41.855468 24.066406 7.695313 0 15.613282-1.828125 23.296875-5.625l29.816407-10.519531-19.878907-24.570312c-8.296875-13.234376-20.761719-21.136719-34.441406-23.289063 10.367187-.675781 20.664063-4.589844 29.628906-12.148437l26.4375-17.324219-25.179687-19.132813c-5.730469-5.550781-12.230469-9.347656-19.023438-11.769531 5.667969-4.328125 10.609375-9.953125 14.378906-16.894531l18.269532-25.773438-30.390625-8.621094c-11.914063-4.976562-24.0625-5.355468-34.933594-1.925781 7.71875-6.164062 13.703125-14.785156 16.933594-25.441406l12.726562-28.941406-31.527343-2.320313c-26.511719-5.140625-50.1875 9.085938-58.015626 34.917969l-10.152343 23.117187c-6.273438-7.234374-13.140625-13.921874-20.519531-20.03125l24.40625-12.957031c25.171874-9.710937 37.644531-34.421875 30.511718-60.449219l-4.644531-31.261718-27.917969 14.820312c-25.171875 9.71875-37.644531 34.429688-30.507812 60.457032l3.832031 25.828124c-8.378906-6.476562-17.414063-12.136718-26.953125-16.980468l11.933594-21.695313c15.75-21.914062 12.652344-49.417969-7.558594-67.289062l-21.023438-23.636719-15.234374 27.683594c-15.742188 21.914062-12.644532 49.421875 7.578124 67.304687l9.953126 11.179688c-2.195313-.867188-4.339844-1.808594-6.578126-2.585938-3.871093-1.332031-7.910156.207031-10.171874 3.394531l-16.359376-18.808593c-15.15625-22.308594-42.035156-28.886719-65.785156-16.074219l-29.410156 11.582031 20.746094 23.839844c9.980468 14.707031 25.042968 22.570313 40.953125 22.570313 2.664062 0 5.355469-.304688 8.046875-.753907-12.722656 4.933594-23.144532 15.074219-28.554688 29.5l-14.550781 28.070313 31.308594 4.328125c4.722656 1.242187 9.414062 1.84375 13.964843 1.84375 8.136719 0 15.8125-1.988281 22.640626-5.597657-2.472657 7.414063-3.425782 15.550782-2.175782 24.171876l.773438 31.597656 29.519531-11.285156c2.445313-.613282 4.695313-1.503907 6.945313-2.394532-.730469 2.421875-1.429688 4.867188-1.835938 7.476563l-8.546875 30.425781 31.535156-2.113281c.394531.019531.761719-.054688 1.167969-.042969-5.039062 4.480469-9.386719 10.015625-12.597656 16.722656l-16.992188 26.644532 30.804688 7.101562c3.609375 1.304688 7.199218 2.097656 10.78125 2.617188-13.183594 1.109374-25.730469 7.515624-35.015625 19.234374l-22.453125 22.246094 28.453125 13.730469c8.882812 5.6875 18.460937 8.453125 27.835937 8.453125 14.617188 0 28.746094-6.722656 38.960938-19.601562l1.242187-1.234376c-28.097656 67.875-88.582031 117.703126-168.316406 132.929688-4.886719.9375-8.082031 5.652344-7.152344 10.53125.828125 4.308594 4.597657 7.3125 8.828125 7.3125.566406 0 1.125-.050781 1.691406-.160156 81.085938-15.480469 143.691407-64.191406 176.007813-131.113282l-1.242187 26.476563c-4.464844 26.613281 10.441406 49.9375 36.464843 57.066406l29.257813 11.921875 1.476562-31.558594c4.460938-26.621093-10.441406-49.945312-36.464844-57.0625l-27.332031-11.160156c4.921875-10.753906 8.933594-22.023437 12.265625-33.621094l3.804688 13.441407c4.191406 26.648437 25.683594 44.132812 52.652344 42.578125l31.542968 2.050781-8.601562-30.40625c-4.191406-26.667969-25.890625-44.144531-52.65625-42.578125l-22.648438-1.464844c2.105469-9.882812 3.679688-19.988281 4.597656-30.332031zm-41.488282-245.457031 6.964844-3.617188.980469 6.625.242187 1.140625c4.941406 17.296875-3.066406 33.164063-19.914062 39.464844l-6.964844 3.617187-.984375-6.617187-.242187-1.140625c-4.941407-17.296875 3.070312-33.164062 19.917968-39.472656zm-77.53125-22.09375 3.863282-6.855469 4.453124 5.011719.835938.820312c13.597656 11.777344 15.578125 29.433594 4.941406 43.925782l-3.863281 6.855468-4.445313-5.003906-.835937-.820312c-13.597656-11.777344-15.585937-29.433594-4.949219-43.933594zm104.96875 371.933594.441406-7.847657 6.191407 2.523438 1.117187.367187c17.394532 4.574219 26.960938 19.546875 23.800782 37.257813l-.441407 7.847656-6.199219-2.519531-1.097656-.371094c-17.402344-4.578125-26.972656-19.546875-23.8125-37.257812zm24.558594-63.855469.585938-.039063c17.863281-1.257812 31.757812 10 34.367187 27.792969l2.0625 7.585937-7.265625-.46875-.582031.035157c-17.835938 1.332031-31.761719-9.988281-34.371094-27.789063l-2.058594-7.585937zm-17.070312-69.800781c.035156-2.582032.242187-5.113282.207031-7.722657-.136719-8.808593-.953125-17.484375-2.320313-26.007812l11.277344 8.570312c7.917969 7.667969 17.214844 12.265625 26.851562 13.949219-6.496093.503906-13.09375 2.203125-19.519531 5.390625zm-12.574219-71.714844 22.140625 6.273437c1.375.574219 2.761718 1.050781 4.148437 1.511719-1.089843.789062-2.242187 1.429688-3.292969 2.320312l-16.191406 10.617188c-1.851562-7.078125-4.128906-13.992188-6.804687-20.722656zm79.207031 94.257812 4.875 6.164063-6.308594 2.222656-1.070312.46875c-16.046875 8.117187-33.144532 3.292969-42.539063-12.042969l-4.886719-6.160156 6.308594-2.222656 1.070313-.46875c16.054687-8.128906 33.144531-3.292969 42.550781 12.039062zm5.453125-63.777344-5.589844 3.671876-.933593.703124c-13.652344 11.753907-31.390626 11.125-44.179688-1.53125l-6.199219-4.8125 5.585938-3.664062.9375-.703125c13.644531-11.75 31.398437-11.121094 44.175781 1.523437zm-17.324219-64.335937 7.539063 2.214844-3.867188 5.453125-.613281.988281c-8.421875 15.902344-25.179688 21.796875-41.703125 14.6875l-7.523437-2.207031 3.871093-5.453125.613281-.988281c8.402344-15.910157 25.160157-21.832032 41.683594-14.695313zm-71.554687-33.765625.398437-1.097656c5.039063-17.261719 20.21875-26.457032 37.875-22.785156l7.828125.648437-2.6875 6.128906-.40625 1.097657c-5.039062 17.269531-20.292969 26.429687-37.867187 22.785156l-7.839844-.648438zm2.105469 24.53125c3.625.703125 7.210937 1.054688 10.699218 1.054688 5.273438 0 10.332032-.828126 15.09375-2.332032-5.355468 4.25-10.054687 9.613282-13.652344 16.246094l-13.777343 19.417969c-5.933594-12.941407-13.320313-25.070313-22.039063-36.132813zm-23.074219 31.714844-19.976563 1.339844c-7.722656-.386719-14.902344.917968-21.457031 3.386718 1.945313-6.839844 2.621094-14.238281 1.496094-22.03125l-.765625-31.085937c16.65625 13.121093 30.460937 29.636719 40.703125 48.390625zm-164.921875-95.96875-5.09375-5.984375 6.226562-2.445313 1.054688-.503906c15.730468-8.722656 32.992187-4.484375 42.9375 10.488281l5.089844 5.984375-6.226563 2.449219-1.050781.503906c-15.730469 8.710938-32.992188 4.480469-42.9375-10.492187zm51.125 26.53125 23.6875-9.34375c.71875 2.835937 2.652344 5.308594 5.625 6.34375 15.882812 5.507812 30.433594 13.609375 43.347656 23.695312l-29.101562 11.121094c-4.355469 1.089844-8.289063 2.78125-12.015626 4.726562 0 0 .011719-.007812.011719-.015624l14.550781-28.050782-31.308593-4.339844c-7.351563-1.933593-14.535157-2.160156-21.347657-1.140624 2.203126-.847657 4.390626-1.828126 6.550782-2.996094zm-24.414063 50.132812-7.777343-1.160156 3.085937-5.941406.476563-1.070313c6.128906-16.910156 21.914062-25.078125 39.257812-20.308593l7.773438 1.160156-3.085938 5.929687-.476562 1.082031c-6.136719 16.898438-21.929688 25.050782-39.253907 20.308594zm55.769531 40.882813-7.371093 2.738281-.164063-6.6875-.105468-1.167969c-2.773438-17.773437 7.125-32.523437 24.613281-36.710937l7.367187-2.734375.164063 6.6875.109375 1.167969c2.777344 17.773437-7.121094 32.523437-24.613282 36.707031zm32.828126 32.714843-7.261719.484376 1.808593-6.433594.230469-1.152344c2.457031-16.972656 15.109375-27.933594 31.84375-27.933594.816407 0 1.644531.027344 2.472657.082032l.585937.035156 7.261719-.484375-1.808594 6.445312-.234375 1.152344c-2.574219 17.796875-16.171875 29.039063-34.3125 27.851563zm52.621093-24.640624 4.183594-14.894532c6.921875 16.441406 11.132813 34.242188 12.339844 52.726563l-17.863281-4.121094c-5.113282-1.84375-10.207032-2.691406-15.21875-2.996094 8.59375-7.460937 14.585937-17.980469 16.558593-30.714843zm-52.117187 74.191406 3.589844-5.644532.566406-1.023437c7.613281-16.300781 24.054687-23.023437 40.902344-16.742187l7.652343 1.847656-3.59375 5.640625-.566406 1.015625c-7.613281 16.308594-24.082031 23.058594-40.910156 16.742187zm37.410156 53.195312-.773438.882813c-11.042968 14.207031-28.554687 17.140625-43.601562 7.277343l-7.046875-3.480468 4.761719-4.707032.773437-.882812c11.03125-14.210938 28.542969-17.144531 43.601563-7.28125l7.046875 3.484375zm7.074219-23.578125c-6.535157-4.1875-13.453125-6.605469-20.382813-7.695312 17.105469-1.371094 32.277344-11.519531 40.503906-28.65625l4.085938-6.40625c-.792969 17.574219-3.429688 34.519531-7.800781 50.675781zm0 0"/>
</symbol>
<symbol id="bar-2" viewBox="0 0 512 512">
    <g>
        <g>
            <path d="M376,16c-5.52,0-10,4.48-10,10s4.48,10,10,10c5.52,0,10-4.48,10-10S381.52,16,376,16z"/>
        </g>
    </g>
    <g>
        <g>
            <path d="M502,476h-56.324c2.121-3.656,3.324-7.885,3.324-12.43v-23.43c0-3.558,2.641-6.14,6.28-6.14h30.15
                c14.651,0,26.57-12.108,26.57-26.99c0-28.472-11.083-55.235-31.208-75.361c-16.923-16.922-45.361-4.599-45.361,18.791
                c0,3.623-2.947,6.57-6.57,6.57h-30.15c-3.303,0-6.53,0.635-9.536,1.797l-3.076-8.458c-1.227-3.37,0.472-7.166,3.921-8.422
                l22.021-8.01c13.797-5.021,20.901-20.253,15.877-34.056l-8.012-22.025c-1.237-3.396,0.506-7.165,3.926-8.41
                c22.262-8.105,23.587-39.041,2.142-49.051c-25.808-12.025-54.746-13.287-81.483-3.552c-13.796,5.02-20.913,20.251-15.886,34.06
                l8.019,22.007c1.24,3.408-0.517,7.18-3.933,8.423l-13.574,4.94c0.065-6.889-2.52-13.799-7.765-19.044l-16.56-16.56
                c-2.567-2.566-2.568-6.731,0-9.298l16.56-16.56c10.361-10.362,10.361-27.221,0-37.583C291.226,167.083,264.465,156,236,156
                c-23.892,0-35.353,28.788-18.792,45.351c2.564,2.563,2.564,6.734,0,9.298l-16.56,16.56c-10.383,10.383-10.383,27.198,0,37.583
                l16.56,16.56c2.564,2.563,2.564,6.734,0,9.298l-6.16,6.16c-2.887-3.3-6.585-5.921-10.879-7.486l-22.01-8.01
                c-1.651-0.601-2.969-1.809-3.712-3.401c-0.742-1.59-0.821-3.374-0.223-5.019l8.021-22.014
                c5.021-13.795-2.083-29.033-15.886-34.056c-26.738-9.735-55.677-8.474-81.491,3.555c-21.436,10.005-20.115,40.942,2.149,49.048
                c3.364,1.225,5.181,4.96,3.923,8.415l-8.009,22.019c-5.022,13.798,2.073,29.034,15.878,34.058l22.018,8.009
                c3.403,1.239,5.163,5.017,3.924,8.422l-3.075,8.445c-3.021-1.154-6.251-1.784-9.538-1.784h-29c-3.623,0-6.57-2.947-6.57-6.57
                c0-23.44-28.47-35.682-45.361-18.791C11.375,351.483,0,379.104,0,407.43C0,422.081,11.919,434,26.57,434h29
                c3.726,0,6.43,2.583,6.43,6.14v23.43c0,4.491,1.141,8.723,3.147,12.43H10c-5.523,0-10,4.477-10,10s4.477,10,10,10
                c19.201,0,464.43,0,492,0c5.523,0,10-4.477,10-10S507.523,476,502,476z M128.793,475.999c-4.725-3.85-10.578-5.999-16.653-5.999
                H88.71c-3.7,0-6.71-2.885-6.71-6.43v-23.43C82,425.482,70.391,414,55.57,414h-29c-3.623,0-6.57-2.947-6.57-6.57
                c0-23.062,9.24-45.528,25.351-61.639c4.137-4.139,11.219-1.239,11.219,4.648c0,14.651,11.919,26.57,26.57,26.57l29-0.1
                c1.979,0,3.876,0.982,5.19,2.451c0.328,0.697,0.743,1.351,1.224,1.958c0.287,0.717,0.446,1.468,0.446,2.251v23.44
                c0,14.882,11.789,26.99,26.28,26.99h23.43c3.645,0,6.29,2.583,6.29,6.14v23.43c0,4.491,1.147,8.723,3.162,12.43H128.793z
                M225.281,470.002h-23.44c-3.708,0-6.84-2.945-6.84-6.43v-23.43c0-14.658-11.548-26.14-26.29-26.14h-23.43
                c-3.404,0-6.28-3.201-6.28-6.99v-23.44c0-3.172-0.583-6.295-1.696-9.234l6.243-17.146c5.011-13.769-2.111-29.046-15.878-34.058
                l-22.02-8.011c-3.403-1.238-5.163-5.017-3.922-8.425l8.008-22.015c5.027-13.793-2.075-29.027-15.875-34.05
                c-5.486-1.997-5.869-9.64-0.537-12.129c20.968-9.77,44.477-10.795,66.196-2.887c3.408,1.24,5.172,5.019,3.935,8.419l-8.021,22.014
                c-2.428,6.67-2.111,13.886,0.892,20.32c3.001,6.431,8.327,11.31,14.996,13.737l22.005,8.009c1.715,0.625,3.042,1.926,3.755,3.526
                c-6.598,10.282-5.404,24.177,3.568,33.15l16.56,16.56c2.567,2.566,2.568,6.731,0,9.298l-16.56,16.56
                c-10.361,10.361-10.361,27.221,0,37.583l26.237,26.237c-1.835,5.568-1.795,11.649,0.288,17.364l0.633,1.739
                C226.971,470.051,226.128,470.002,225.281,470.002z M239.878,435.739L214.79,410.65c-2.564-2.563-2.564-6.734,0-9.298l16.56-16.56
                c10.361-10.362,10.361-27.221,0-37.583l-16.56-16.56c-2.552-2.551-2.564-6.71,0-9.298l16.56-16.56
                c10.362-10.361,10.362-27.221,0.001-37.582C216.139,251.2,212.868,250.684,212.868,246c0-1.757,0.683-3.409,1.924-4.649
                l16.56-16.56c10.361-10.362,10.361-27.221,0-37.583C227.23,183.088,230.105,176,236,176c23.124,0,44.861,9.003,61.208,25.351
                c2.567,2.566,2.568,6.731,0,9.298l-16.56,16.56c-10.361,10.361-10.361,27.221,0,37.583l16.56,16.56
                c2.564,2.563,2.564,6.734,0,9.298l-16.56,16.56c-10.361,10.361-10.361,27.221,0,37.583l11.481,11.481l-15.26,5.56
                c-6.668,2.427-11.994,7.304-14.995,13.734c-3.004,6.434-3.32,13.649-0.891,20.315l8.019,22.018
                c1.239,3.405-0.522,7.184-3.921,8.423l-22.015,8.008C241.968,434.731,240.906,435.205,239.878,435.739z M298.958,334.815
                l-4.166-4.167c-2.395-2.392-2.554-6.171-0.486-8.751C294.756,323.395,294.682,323.021,298.958,334.815z M333.495,429.687
                l8.01,22.021c1.23,3.38-0.48,7.17-3.921,8.422l-22.021,8.01c-4.426,1.61-8.247,4.332-11.21,7.857H251.23l-5.265-14.454
                c-1.248-3.426,0.527-7.182,3.933-8.419l22.025-8.012c13.762-5.015,20.882-20.292,15.872-34.058l-8.021-22.021
                c-0.598-1.642-0.519-3.421,0.222-5.009c0.743-1.592,2.062-2.799,3.716-3.402l22.021-8.024c3.373-1.233,6.404-3.087,9.015-5.517
                c0.042-0.039,0.08-0.082,0.122-0.122c0.088-0.085,0.173-0.171,0.258-0.259c7.513-7.291,10.066-18.269,6.477-28.146l-8.019-22.018
                c-1.24-3.409,0.517-7.18,3.933-8.423l22.011-8.006c13.794-5.02,20.913-20.25,15.886-34.061l-8.019-22.006
                c-1.24-3.408,0.515-7.18,3.935-8.423c21.718-7.908,45.227-6.882,66.189,2.885c5.302,2.474,4.998,10.118-0.531,12.131
                c-13.785,5.018-20.906,20.247-15.877,34.045l8.011,22.021c1.24,3.406-0.52,7.185-3.921,8.423l-22.022,8.01
                c-13.798,5.022-20.9,20.255-15.876,34.057l6.966,19.14c0.125,1.524,0.602,3.001,1.386,4.316c0.376,2.971-1.316,5.904-4.267,6.978
                l-22.018,8.019C335.587,400.659,328.466,415.888,333.495,429.687z M429,440.14v23.43c0,3.731-3.556,5.43-6.86,5.43h-23.43
                c-5.917,0-11.764,2.456-16.837,7h-31.687c9.803-6.581,14.412-19.311,10.111-31.128l-8.012-22.025
                c-1.239-3.401,0.511-7.166,3.927-8.41l22.018-8.019c12.199-4.44,18.892-16.667,17.241-28.561c0.966-0.547,2.073-0.946,3.239-0.946
                h30.15c14.651,0,26.57-11.819,26.57-26.47c0-5.905,7.098-8.771,11.219-4.648C482.997,362.139,492,383.88,492,407.01
                c0,3.724-3.07,6.99-6.57,6.99h-30.15C440.544,414,429,425.482,429,440.14z"/>
        </g>
    </g>
    <g>
        <g>
            <path d="M306,36c-22.056,0-40,17.944-40,40c0,22.056,17.944,40,40,40c22.056,0,40-17.944,40-40C346,53.944,328.056,36,306,36z
                M306,96c-11.028,0-20-8.972-20-20s8.972-20,20-20s20,8.972,20,20S317.028,96,306,96z"/>
        </g>
    </g>
    <g>
        <g>
            <path d="M356,136c-16.542,0-30,13.458-30,30s13.458,30,30,30s30-13.458,30-30S372.542,136,356,136z M356,176
                c-5.514,0-10-4.486-10-10c0-5.514,4.486-10,10-10c5.514,0,10,4.486,10,10C366,171.514,361.514,176,356,176z"/>
        </g>
    </g>
</symbol>
<symbol id="bar-3" viewBox="0 0 511.999 511.999">
    <path id="XMLID_1790_" d="m240.383 409.486c-5.292-1.582-10.863 1.43-12.441 6.723-13.313 44.607-55.158 75.762-101.762 75.762-58.548-.001-106.18-47.633-106.18-106.181 0-78.521 27.642-155.019 77.832-215.402l16.903-20.336c2.836-3.412 7.008-5.369 11.444-5.369s8.608 1.957 11.444 5.368l16.903 20.337c38.287 46.063 63.658 101.651 73.372 160.754.895 5.448 6.033 9.146 11.489 8.245 5.449-.896 9.142-6.039 8.245-11.489-10.289-62.61-37.167-121.497-77.726-170.293l-16.903-20.338c-6.648-7.997-16.426-12.584-26.825-12.584s-20.177 4.587-26.825 12.585l-16.903 20.336c-53.168 63.967-82.45 145.006-82.45 228.186 0 69.575 56.604 126.18 126.18 126.18 27.715 0 54.018-8.816 76.064-25.496 21.322-16.132 37.254-39.055 44.861-64.547 1.581-5.292-1.43-10.862-6.722-12.441z"/><path id="XMLID_1796_" d="m121.449 252.915c-4.865 2.612-6.692 8.675-4.08 13.541 16.498 30.729 26.637 65.315 29.317 100.02.405 5.244 4.786 9.23 9.96 9.23.258 0 .52-.011.781-.03 5.506-.426 9.625-5.234 9.2-10.741-2.936-37.989-13.58-74.306-31.638-107.939-2.612-4.866-8.673-6.693-13.54-4.081z"/><path id="XMLID_1803_" d="m126.18 427.043c5.522 0 10-4.478 10-10s-4.478-10-10-10c-11.719 0-21.253-9.534-21.253-21.253 0-12.47.944-25.058 2.807-37.413.822-5.461-2.938-10.556-8.398-11.379-5.454-.821-10.556 2.937-11.379 8.398-2.01 13.339-3.029 26.929-3.029 40.394-.001 22.747 18.505 41.253 41.252 41.253z"/><path id="XMLID_1804_" d="m126.18 469.506c46.161 0 83.717-37.555 83.717-83.716 0-5.522-4.478-10-10-10s-10 4.478-10 10c0 35.133-28.583 63.716-63.717 63.716-5.522 0-10 4.478-10 10s4.477 10 10 10z"/><path id="XMLID_1805_" d="m191.369 324.396c.777 0 1.567-.091 2.356-.281 5.368-1.298 8.669-6.701 7.371-12.069-6.916-28.625-17.794-56.116-32.329-81.712-2.728-4.803-8.831-6.485-13.634-3.757-4.802 2.727-6.484 8.831-3.757 13.634 13.613 23.973 23.801 49.722 30.28 76.532 1.108 4.578 5.201 7.653 9.713 7.653z"/><path id="XMLID_1806_" d="m87.663 243.373c-4.962-2.417-10.95-.354-13.368 4.612-20.824 42.762-31.831 90.413-31.831 137.805 0 5.522 4.478 10 10 10s10-4.478 10-10c0-44.375 10.309-88.999 29.812-129.049 2.417-4.964.353-10.95-4.613-13.368z"/><path id="XMLID_1809_" d="m511.851 282.914-2.428-26.333c-7.636-82.829-44.233-160.837-103.05-219.654-49.198-49.197-129.25-49.196-178.446 0-49.196 49.198-49.196 129.248.001 178.445 58.818 58.817 136.826 95.415 219.654 103.05l26.332 2.428c1.081.1 2.158.148 3.231.148 9.213 0 18.05-3.632 24.636-10.218 7.354-7.353 11.024-17.51 10.07-27.866zm-24.211 13.724c-3.138 3.138-7.47 4.707-11.89 4.296l-26.332-2.428c-78.188-7.207-151.825-41.753-207.349-97.276-41.398-41.399-41.398-108.761.001-150.16 20.054-20.055 46.718-31.1 75.08-31.1 28.361 0 55.025 11.045 75.08 31.1 55.521 55.521 90.068 129.159 97.276 207.348l2.428 26.333c.408 4.417-1.158 8.75-4.294 11.887z"/><path id="XMLID_1810_" d="m317.149 104.911c5.687 0 11.023 2.206 15.028 6.211 8.817 8.817 17.051 18.386 24.471 28.439 1.961 2.656 4.987 4.063 8.054 4.063 2.063 0 4.144-.637 5.931-1.955 4.443-3.279 5.387-9.54 2.107-13.984-8.011-10.854-16.899-21.185-26.42-30.705-7.782-7.782-18.142-12.068-29.17-12.068-.001 0 0 0-.001 0-11.028 0-21.389 4.286-29.17 12.069-3.905 3.905-3.905 10.236.001 14.142 3.904 3.904 10.237 3.905 14.142-.001 4.005-4.005 9.342-6.211 15.027-6.211z"/><path id="XMLID_1824_" d="m407.762 204.302c-33.393-10.063-65.018-27.35-91.456-49.993-4.196-3.594-10.508-3.105-14.1 1.09-3.593 4.194-3.104 10.507 1.09 14.1 28.94 24.788 62.146 42.94 98.696 53.954.962.289 1.933.428 2.889.428 4.297 0 8.268-2.792 9.571-7.118 1.593-5.288-1.402-10.867-6.69-12.461z"/><path id="XMLID_1825_" d="m376.347 66.953c-3.906-3.904-10.236-3.904-14.143 0-3.905 3.905-3.905 10.237 0 14.143 31.377 31.377 55.642 70.22 70.171 112.331 1.429 4.141 5.305 6.741 9.452 6.741 1.082 0 2.183-.177 3.263-.55 5.221-1.802 7.993-7.494 6.191-12.715-15.512-44.961-41.425-86.44-74.934-119.95z"/><path id="XMLID_1859_" d="m402.274 246.906c-26.576-7.323-51.987-18.327-75.529-32.705-4.714-2.88-10.867-1.391-13.746 3.322s-1.392 10.867 3.322 13.746c25.134 15.351 52.265 27.099 80.639 34.918.89.245 1.783.362 2.663.362 4.388 0 8.412-2.911 9.635-7.346 1.467-5.324-1.659-10.83-6.984-12.297z"/><path id="XMLID_1905_" d="m272.096 66.953c-3.906-3.904-10.236-3.904-14.143 0-32.641 32.642-32.641 85.752 0 118.394 1.953 1.952 4.512 2.929 7.071 2.929s5.118-.977 7.071-2.929c3.905-3.905 3.905-10.237 0-14.143-24.844-24.843-24.844-65.266 0-90.108 3.906-3.905 3.906-10.237.001-14.143z"/><path id="XMLID_1908_" d="m242.17 364.3c-2.63 0-5.21 1.069-7.07 2.93-1.859 1.86-2.93 4.44-2.93 7.07 0 2.64 1.07 5.21 2.93 7.069 1.86 1.87 4.44 2.931 7.07 2.931s5.21-1.061 7.07-2.931c1.859-1.859 2.93-4.439 2.93-7.069s-1.07-5.21-2.93-7.07c-1.86-1.861-4.44-2.93-7.07-2.93z"/>
</symbol>
<symbol id="bar-4" viewBox="0 0 511 511">
    <circle cx="135.5" cy="175.5" r="7.5"/><circle cx="183.5" cy="175.5" r="7.5"/><circle cx="159.5" cy="207" r="7.5"/><circle cx="207.5" cy="207" r="7.5"/><circle cx="63" cy="207" r="7.5"/><circle cx="111.5" cy="207" r="7.5"/><circle cx="159.5" cy="144" r="7.5"/><circle cx="111.5" cy="144" r="7.5"/><circle cx="88" cy="175.5" r="7.5"/><path d="m487.5 224h-71.392c-4.143 0-7.5 3.358-7.5 7.5s3.357 7.5 7.5 7.5h71.392c4.687 0 8.5 3.813 8.5 8.5v2.446c0 4.172-2.987 7.699-7.103 8.385l-226.631 37.771c-3.616.603-6.267 3.731-6.267 7.398v40c0 31.154-25.346 56.5-56.5 56.5h-128c-31.153 0-56.499-25.346-56.499-56.5v-104.5h364.326c4.143 0 7.5-3.358 7.5-7.5s-3.357-7.5-7.5-7.5h-110.745c-4.269-10.311-15.456-35.376-32.9-60.749-30.248-43.996-64.89-67.251-100.181-67.251s-69.933 23.255-100.181 67.251c-22.263 32.384-34.339 64.274-34.841 65.616-.015.04-.023.081-.037.121-.072.203-.135.409-.19.62-.019.073-.04.146-.056.219-.05.219-.088.441-.119.666-.008.059-.021.118-.027.177-.031.273-.049.549-.049.83v112c0 39.425 32.075 71.5 71.5 71.5h128c39.425 0 71.5-32.075 71.5-71.5v-33.646l220.364-36.727c11.378-1.898 19.636-11.646 19.636-23.181v-2.446c0-12.958-10.542-23.5-23.5-23.5zm-352-113c61.131 0 103.635 83.529 116.725 113h-233.457c13.069-29.471 55.522-113 116.732-113z"/>
</symbol>
<symbol id="bar-5" viewBox="-34 0 511 511.9962">
    <path d="m437.5 216.417969-3.777344-15.113281-14.0625 11.378906c-5.050781-14.03125-10.324218-22.488282-12.75-25.9375l-2.695312-3.835938-4.660156-.355468c-3.121094-.230469-9.964844-.429688-19.773438.804687l6.199219-18.972656-17.339844 4.222656c-4.828125 1.175781-10.15625 2.695313-15.863281 4.582031 0-.027344.011718-.046875.011718-.078125 2.207032-114.1875-45.875-164.871093-51.359374-170.277343-.097657-.097657-.238282-.121094-.347657-.210938-.121093-.109375-.167969-.257812-.289062-.355469-.65625-.546875-1.421875-.804687-2.15625-1.152343-.367188-.167969-.664063-.4375-1.054688-.566407-1.332031-.445312-2.722656-.644531-4.09375-.5078122-.019531 0-.03125-.0117188-.050781-.0117188-7.660156.785156-76.898438 10.296875-147.03125 101.398438-3.976562 6.132812-7.671875 12.503906-11.242188 18.992187-31.828124-22.832031-56.199218-28.703125-63.371093-29.957031-2.914063-.515625-5.914063.308594-8.160157 2.238281-3.648437 3.121094-25.003906 22.636719-41.988281 64.648437-.226562.464844-.398437.921876-.554687 1.429688-10.039063 25.269531-18.457032 58.472656-20.589844 101.007812.773438 24.695313 4.628906 49.820313 11.457031 74.644532 6.796875 24.835937 16.308594 48.398437 28.679688 70.757812 28.613281 43.0625 54.699219 53.785156 75.96875 53.785156 12.667969 0 23.621093-3.804687 32.378906-6.835937 4.609375-1.597656 24.585937-7.203125 27.824219-7.949219 9.898437 20.125 26.992187 28.441406 39.425781 34.464844 4.390625 2.125 25.597656 14.199219 29.664063 16.882812 10.613281 7.015626 24.894531 16.457032 44.632812 16.457032 18.753906 0 42.425781-8.515625 72.539062-35.765625 16.921876-18.019531 31.960938-38.5 44.679688-60.890625 12.757812-22.378906 22.699219-45.765625 29.742188-70.3125 11.863281-58.8125 6.546874-102.390625.007812-128.609375zm-64.6875-11.785157c9.042969-1.855468 15.972656-2.324218 20.394531-2.382812 2.601563 4.519531 6.449219 12.324219 9.964844 23.769531l-50.792969 41.105469zm-103.066406-178.027343c-7.902344 11.824219-15.78125 25.25-24.265625 41.351562-2.554688 4.859375-.695313 10.859375 4.152343 13.425781 1.480469.777344 3.0625 1.144532 4.621094 1.144532 3.566406 0 7.027344-1.929688 8.804688-5.308594 11.230468-21.316406 21.296875-37.683594 31.742187-51.625 13.484375 17.808594 39.742188 63.273438 38.152344 146.316406-.320313 3.109375-.714844 6.230469-1.152344 9.332032-.257812.117187-.515625.246093-.785156.367187-2.632813 1.171875-5.335937 2.433594-8.082031 3.777344-1.796875.875-3.585938 1.789062-5.375 2.710937-1.042969.539063-2.085938 1.085938-3.140625 1.640625-10.117188 5.367188-20.183594 11.519531-30.171875 18.445313-.65625.445312-1.300782.902344-1.957032 1.359375-2.296874 1.613281-4.582031 3.261719-6.867187 4.960937-.953125.707032-1.910156 1.441406-2.871094 2.164063-2.109375 1.601562-4.214843 3.210937-6.324219 4.882812-1.351562 1.074219-2.710937 2.207031-4.074218 3.320313-1.765625 1.449218-3.546875 2.871094-5.316406 4.371094-3.167969 2.691406-6.371094 5.476562-9.589844 8.386718-4.230469 4.503906-8.335938 9.15625-12.324219 13.964844-8.226563 9.917969-15.910156 20.472656-23.023437 31.5625-.011719.011719-.019532.019531-.03125.03125-3.242188 5.027344-6.339844 10.144531-9.300782 15.332031-.398437.707031-.753906 1.460938-1.152344 2.167969-3.390624 6.039062-6.539062 12.171875-9.511718 18.363281-.058594.121094-.136719.289063-.238282.507813l-.21875.476562c-.097656.210938-.1875.429688-.296874.644532h-.011719c-.011719.011718 0 .03125-.011719.042968-.347656.722656-.664062 1.460938-1.003906 2.1875 7.84375-63.914062 22.183594-123.910156 42.855468-178.519531 1.945313-5.136719-.636718-10.871094-5.773437-12.816406-5.140625-1.941407-10.875.644531-12.8125 5.773437-21.890625 57.828125-36.847656 121.460938-44.699219 189.238282-1.789062-.546876-3.496094-1.105469-5.417968-1.640626-21.871094-6.070312-49.082032-13.644531-47.832032-79.941406 2.335938-23.015625 7.59375-46.257812 15.632813-69.089844 4.195312-11.984374 9.382812-24.148437 15.394531-36.152343.03125-.050781.019531-.109375.050781-.15625 4.679688-9.332031 9.691407-18.316407 15.105469-26.703125 41.628906-54.058594 81.890625-76.757813 107.121094-86.296875zm-99.0625 398.574219c-3.796875.945312-21.765625 5.929687-28.214844 8.167968-21.457031 7.460938-48.128906 16.742188-84.839844-38.472656-11.199218-20.28125-20.113281-42.382812-26.496094-65.707031-6.417968-23.328125-10.035156-46.878907-10.769531-69.191407 1.878907-37.027343 8.714844-66.125 17.003907-88.644531 14.945312-.6875 29.832031-2.753906 44.332031-6.332031 5.328125-1.3125 8.585937-6.695312 7.261719-12.023438-1.3125-5.335937-6.738282-8.605468-12.023438-7.265624-10.117188 2.496093-20.453125 4.15625-30.859375 5.117187 10.457031-21.324219 21.320313-34.035156 26.984375-39.742187 9.035156 2.335937 28.503906 9.054687 53.039062 27.171874-.296874.625-.546874 1.261719-.835937 1.898438-1.996094 4.332031-3.976563 8.675781-5.792969 13.128906-2.21875 5.363282-4.285156 10.722656-6.152344 16.050782-8.546874 24.296874-14.152343 49.082031-16.707031 74.484374-1.597656 82.503907 38.429688 93.632813 62.339844 100.28125 4.703125 1.3125 18.703125 7.265626 19.042969 7.265626.078125 0 .367187-.011719.425781-.019532-.1875.546875-.347656 1.113282-.535156 1.660156-1.867188 5.253907-3.488281 10.226563-4.871094 15.035157-.070313.257812-.136719.527343-.199219.796875-1.070312 5.324218-1.886718 10.355468-2.511718 15.152344-.21875 1.652343-.308594 3.183593-.46875 4.78125-.324219 3.152343-.636719 6.28125-.773438 9.203124-.078125 1.558594-.070312 3.050782-.089844 4.570313-.050781 3.019531-.03125 5.941406.109375 8.714844.058594 1.085937.128907 2.167969.21875 3.230469.285157 3.667968.734375 7.125 1.339844 10.367187.011719.097656.023437.21875.042969.320313zm247.515625-84.863282c-6.410157 22.242188-15.730469 44.164063-27.71875 65.191406-11.953125 21.03125-26.054688 40.25-41.320313 56.539063-49.78125 45.019531-73.351562 29.425781-92.304687 16.90625-5.695313-3.769531-25.808594-15.214844-31.960938-18.199219-12.113281-5.871094-25.929687-12.679687-32.488281-30.738281-.046875-.179687 0-.355469-.070312-.535156-4.769532-13.863281-4.808594-32.785157-.128907-56.238281 1.234375-4.246094 2.644531-8.476563 4.085938-12.695313 1.34375-3.824219 2.804687-7.789063 4.503906-12.132813 2.644531-6.757812 5.515625-13.335937 8.535156-19.746093.21875-.476563.507813-1.101563.527344-1.132813.007813-.011718 0-.03125.007813-.050781l.011718-.007813c3.128906-6.582031 6.449219-12.96875 9.9375-19.089843 0-.011719.011719-.011719.019532-.019531 2.785156-4.890626 5.714843-9.691407 8.746093-14.421876 3.089844-4.820312 6.300781-9.488281 9.589844-14.050781.03125-.039062.070313-.070312.089844-.109375.019531-.027344.019531-.046875.039062-.078125 7.214844-9.96875 14.859375-19.339843 22.851563-27.875 4.121094-3.726562 8.1875-7.195312 12.222656-10.523437 1.179688-.976563 2.363281-1.910156 3.546875-2.863282 2.960937-2.375 5.882813-4.660156 8.785156-6.835937 1.203125-.90625 2.40625-1.808594 3.609375-2.683594 3.082032-2.246093 6.113282-4.363281 9.113282-6.382812.894531-.605469 1.789062-1.242188 2.683593-1.835938 7.921875-5.226562 15.5625-9.722656 22.835938-13.578125 1.484375-.78125 2.960937-1.480468 4.453125-2.222656 2.078125-1.042969 4.175781-2.128906 6.191406-3.070312 2.503906-1.175782 5.007812-2.257813 7.523438-3.320313 4.710937-2.007813 9.28125-3.847656 13.542968-5.335937l-43.058594 131.726562 108.851563-88.097656c4.089844 24.550781 5.601563 59.464844-3.253906 103.507812zm0 0"/><path d="m290.296875 254.730469c-3.078125 1.847656-75.496094 46.410156-80.007813 136.390625-.28125 5.484375 3.945313 10.144531 9.417969 10.425781.171875.007813.339844.007813.507813.007813 5.257812 0 9.648437-4.121094 9.917968-9.4375 3.976563-79.15625 69.765626-119.953126 70.421876-120.359376 4.691406-2.832031 6.191406-8.945312 3.359374-13.636718-2.824218-4.703125-8.925781-6.230469-13.617187-3.390625zm0 0"/>
</symbol>
<symbol id="bar-6" viewBox="0 0 60 60">
    <path id="Shape" d="m.47 53.848c8.698 5.437 8.122 5.152 8.53 5.152s-.1.239 8-4.821c8.117 5.073 7.6 4.821 8 4.821s0 .177 6.54-3.912c.469442-.2929871.612487-.9110579.3194999-1.3805-.292987-.469442-.9110579-.612487-1.3804999-.3195l-5.479 3.433-7-4.375v-6.892l3.651-2.286c.469442-.2932632.6122632-.911558.319-1.381s-.911558-.6122632-1.381-.319l-3.589 2.252-7-4.374v-6.892l7-4.374c3.9 2.443 3.643 2.316 3.922 2.373.4689316.0873966.9343088-.1685789 1.1115902-.6114178.1772815-.4428388.0171067-.9492413-.3825902-1.2095822l-3.651-2.286v-6.892l7-4.375 7 4.375v1.446c0 .5522847.4477153 1 1 1s1-.4477153 1-1v-1.446l7-4.375 7 4.375v7.446c0 .5522847.4477153 1 1 1s1-.4477153 1-1v-8c.0000008-.3447904-.1776185-.6652611-.47-.848l-7.53-4.706v-7.446c.0000008-.34479043-.1776185-.66526107-.47-.848l-8-5c-.3242708-.20266981-.7357292-.20266981-1.06 0l-7.47 4.669-7.47-4.669c-.3242708-.20266981-.7357292-.20266981-1.06 0l-8 5c-.29238147.18273893-.47000081.50320957-.47.848v7.446l-7.53 4.706c-.29238147.1827389-.47000081.5032096-.47.848v8c-.00000081.3447904.17761853.6652611.47.848l7.53 4.706v6.892l-7.53 4.706c-.29238147.1827389-.47000081.5032096-.47.848v8c-.00000081.3447904.17761853.6652611.47.848zm32.53-51.669 7 4.375v6.892l-7 4.375-7-4.375v-6.892zm-16 0 7 4.375v6.892l-7 4.375-7-4.375v-6.892zm-15 17.375 7-4.375 7 4.375v6.892l-7 4.375-7-4.375zm0 26 7-4.375 7 4.375v6.892l-7 4.375-7-4.375z"/><path id="Shape" d="m46 30.012v-1.012c-.0001797-1.7518097-.7676023-3.4156551-2.1-4.553l1-2c.2412059-.493494.039214-1.0891622-.4524127-1.3341516-.4916268-.2449894-1.0888289-.0475788-1.3375873.4421516l-.927 1.861c-1.3993259-.5531106-2.9566741-.5531106-4.356 0l-.927-1.862c-.157688-.3226209-.4762521-.5359231-.834616-.5588369-.3583639-.0229139-.7015.1480791-.8989927.4479897-.1974927.2999105-.2190167.6826868-.0563913 1.0028472l1 2c-1.3363877 1.1356891-2.1076168 2.800228-2.11 4.554v1.009c-.91-.009-1.9-.009-3-.009-5.312 0-11 2.411-11 6 0 4.308 8.125 6.579 12.167 5.891-.092.8-.167 1.89-.167 2.609 0 7 3 12.581 7 13.389v1.111c0 .5522847.4477153 1 1 1s1-.4477153 1-1v-1.111c4-.808 7-6.393 7-13.389 0-.715-.076-1.812-.166-2.6 4.095.677 12.166-1.6 12.166-5.9 0-3.589-5.688-6-11-6-1.05 0-2.061 0-3 .012zm-10-1.012c0-2.209139 1.790861-4 4-4s4 1.790861 4 4v1.052c-1.3532201-.022481-2.7013032.1719832-3.993.576-1.2930839-.4191962-2.6481418-.6149981-4.007-.579zm4.006 6.381c.468581.9376968 1.0462471 1.8167831 1.721 2.619h-3.457c.6736963-.8061467 1.2559209-1.6845144 1.736-2.619zm-18.006.619c0-1.8 4.153-4 9-4 2 0 6.731-.036 7.973.358-.342 2.405-3.827 7.642-7.973 7.642-4.847 0-9-2.2-9-4zm14.214 4h7.555c.6056562.4785529 1.2619019.8893351 1.957 1.225.04.257.075.516.106.775h-6.832c-.5522847 0-1 .4477153-1 1s.4477153 1 1 1h6.977c.0437111.6665261.0313342 1.3355467-.037 2h-11.88c-.0656006-.664616-.0779733-1.3334123-.037-2h.977c.5522847 0 1-.4477153 1-1s-.4477153-1-1-1h-.832c.032-.265.067-.53.109-.793.6876696-.3306399 1.3371846-.7353713 1.937-1.207zm-.714 12h4.5c.5522847 0 1-.4477153 1-1s-.4477153-1-1-1h-5.241c-.1903886-.6575983-.3439603-1.3253014-.46-2h11.401c-.1160397.6746986-.2696114 1.3424017-.46 2h-1.24c-.5522847 0-1 .4477153-1 1s.4477153 1 1 1h.5c-2.434 5.33-6.567 5.328-9 0zm22.5-16c0 2.487-7.435 4.99-10.992 3.61-2.9713691-1.401203-5.1630793-4.0544996-5.978-7.237 1.437-.433 5.77-.358 7.97-.373 4.847 0 9 2.2 9 4z"/></g>
</symbol>
<symbol id="bar-7" viewBox="0 0 513 513">    
    	<g >
		<g>
			<pathd="M242.49 120.59C238.96 116.2 232.54 115.5 228.15 119.02C222.89 123.25 216.53 125.48 209.76 125.48C202.99 125.48 196.63 123.25 191.37 119.02C186.98 115.5 180.56 116.2 177.03 120.59C173.51 124.98 174.21 131.4 178.61 134.93C187.4 141.99 198.46 145.88 209.76 145.88C221.06 145.88 232.12 141.99 240.92 134.93C245.31 131.4 246.01 124.99 242.49 120.59Z" />
		</g>
	</g>
	<g >
		<g>
			<path d="M508.78 333.31C502.94 357.69 489.23 379.42 469.15 396.18C422.44 435.15 363.16 456.61 302.24 456.61C241.31 456.61 182.04 435.15 135.33 396.18C115.24 379.42 101.54 357.69 95.7 333.31C92.97 321.94 91.99 310.26 92.71 298.6C74.94 289.65 58.18 278.66 42.85 265.87C22.77 249.11 9.06 227.38 3.22 203C-2.2 180.41 -0.76 156.62 7.37 134.18C15.53 111.66 29.76 92.37 48.52 78.41C68.74 63.35 93.32 55.39 119.58 55.39L125.53 55.39C150.98 55.39 175.69 64.43 197 81.53C200.65 84.46 205.06 86.01 209.76 86.01C214.46 86.01 218.87 84.46 222.53 81.53C243.83 64.43 268.54 55.39 294 55.39L299.94 55.39C336.29 55.39 368.78 70.46 391.41 97.82C412.34 123.12 422.26 156.42 418.8 188.52C435.06 192.04 450.21 198.84 463.48 208.72C482.24 222.68 496.47 241.97 504.63 264.49C512.76 286.93 514.2 310.73 508.78 333.31ZM99.85 264.49C108.01 241.97 122.24 222.68 140.99 208.72C161.22 193.66 185.8 185.71 212.06 185.71L218.01 185.71C243.46 185.71 268.17 194.74 289.47 211.84C293.13 214.77 297.54 216.32 302.24 216.32C306.94 216.32 311.35 214.77 315.01 211.84C336.31 194.74 361.02 185.71 386.48 185.71L392.42 185.71C394.49 185.71 396.54 185.77 398.58 185.87C401.33 159.33 393.05 131.79 375.69 110.82C357.01 88.23 330.11 75.79 299.94 75.79L294 75.79C273.24 75.79 252.94 83.28 235.3 97.44C228.09 103.22 219.02 106.41 209.76 106.41C200.51 106.41 191.44 103.22 184.23 97.44C166.58 83.28 146.29 75.79 125.53 75.79L119.59 75.79C68.44 75.79 37.99 109.54 26.55 141.13C15.17 172.53 16.91 217.67 55.92 250.21C68.34 260.57 81.78 269.63 95.97 277.28C97.03 272.98 98.32 268.71 99.85 264.49ZM485.46 271.44C474.01 239.85 443.56 206.1 392.42 206.1L386.47 206.1C365.72 206.1 345.42 213.59 327.77 227.75C320.56 233.53 311.5 236.72 302.24 236.72C292.98 236.72 283.91 233.53 276.71 227.75C259.06 213.59 238.76 206.1 218 206.1L212.06 206.1C160.92 206.1 130.47 239.85 119.02 271.44C107.65 302.84 109.39 347.98 148.4 380.52C191.44 416.43 246.08 436.21 302.24 436.21C358.4 436.21 413.03 416.43 456.08 380.52C495.09 347.98 496.83 302.84 485.46 271.44Z" />
		</g>
	</g>
	<g>
		<g id="Layer">
			<path d="M333.34 249.52C329.82 245.13 323.4 244.42 319 247.95C313.74 252.17 307.38 254.41 300.62 254.41C293.85 254.41 287.49 252.17 282.23 247.95C277.83 244.42 271.41 245.13 267.89 249.52C264.36 253.91 265.07 260.33 269.46 263.86C278.25 270.92 289.32 274.8 300.62 274.8C311.91 274.8 322.98 270.92 331.77 263.86C336.16 260.33 336.87 253.91 333.34 249.52Z" />
		</g>
	</g>
	<g>
		<g>
			<path d="M412.07 384.93C409.5 379.92 403.36 377.94 398.35 380.51C368.44 395.85 336.1 403.63 302.24 403.63C296.61 403.63 292.04 408.2 292.04 413.83C292.04 419.46 296.61 424.03 302.24 424.03C339.37 424.03 374.84 415.49 407.65 398.66C412.67 396.09 414.64 389.94 412.07 384.93Z" />
		</g>
	</g>
	<g >
		<g>
			<path d="M451.61 356.06C448 351.73 441.57 351.15 437.25 354.76C434.88 356.73 432.45 358.67 430.01 360.53C425.53 363.95 424.67 370.35 428.08 374.83C430.09 377.46 433.13 378.84 436.2 378.84C438.36 378.84 440.53 378.16 442.38 376.75C445.05 374.71 447.72 372.58 450.31 370.42C454.63 366.82 455.22 360.38 451.61 356.06Z" />
		</g>
	</g>
	<g>
	</g>
	<g>
	</g>
	<g>
	</g>
	<g>
	</g>
	<g>
	</g>
	<g>
	</g>
	<g>
	</g>
	<g>
	</g>
	<g>
	</g>
	<g>
	</g>
	<g>
	</g>
	<g>
	</g>
	<g>
	</g>
	<g>
	</g>
	<g >
	</g>
</symbol>
</svg>